<svg xmlns="http://www.w3.org/2000/svg" viewBox="149.98 295.98 700.03 408.05"><defs/><path fill="#fce052" transform="matrix(0.5226697298252815 0 0 0.5226697298252815 53.823902377460115 4.63010362069477)" d="M 828.15582204158 906.7522381119 L 853.15582204158 783.6522381119 L 793.45582204158 793.5522381119 L 899.35582204158 609.7522381119 L 875.35582204158 717.2522381119 L 936.75582204158 707.1522381119 Z"/><path fill="#192559" transform="matrix(0.5226697298252815 0 0 0.5226697298252815 53.823902377460115 4.63010362069477)" d="M 1012.15582204158 678.3522381119 C 991.95582204158 605.9522381119 928.75582204158 557.4522381119 854.75582204158 557.4522381119 C 787.45582204158 557.4522381119 723.65582204158 600.9522381119 699.65582204158 663.1522381119 C 674.85582204158 727.4522381119 704.35582204158 804.2522381119 728.15582204158 865.8522381119 C 731.75582204158 875.3522381119 735.25582204158 884.4522381119 738.45582204158 893.1522381119 L 766.05582204158 893.1522381119 C 761.95582204158 881.5522381119 757.35582204158 869.4522381119 752.45582204158 856.5522381119 C 729.15582204158 796.0522381119 702.85582204158 727.4522381119 723.95582204158 672.4522381119 C 744.15582204158 619.9522381119 798.05582204158 583.2522381119 854.85582204158 583.2522381119 C 917.05582204158 583.2522381119 970.25582204158 624.2522381119 987.25582204158 685.1522381119 C 995.85582204158 716.0522381119 988.95582204158 751.3522381119 980.25582204158 785.0522381119 C 973.75582204158 810.1522381119 947.95582204158 887.2522381119 939.25582204158 913.2522381119 L 785.35582204158 916.1522381119 C 782.65582204158 916.1522381119 780.05582204158 916.4522381119 777.55582204158 916.9522381119 C 763.75582204158 919.9522381119 752.85582204158 930.6522381119 749.45582204158 944.2522381119 C 748.75582204158 947.0522381119 748.35582204158 949.9522381119 748.35582204158 953.0522381119 C 748.35582204158 973.4522381119 764.95582204158 989.9522381119 785.25582204158 989.9522381119 L 922.25582204158 989.9522381119 C 928.35582204158 989.9522381119 933.25582204158 994.8522381119 933.25582204158 1000.9522381119 C 933.25582204158 1007.0522381119 928.35582204158 1011.9522381119 922.25582204158 1011.9522381119 L 761.25582204158 1011.9522381119 L 761.25582204158 1037.8522381119 L 922.25582204158 1037.8522381119 C 942.65582204158 1037.8522381119 959.15582204158 1021.2522381119 959.15582204158 1000.9522381119 C 959.15582204158 980.6522381119 942.55582204158 964.0522381119 922.25582204158 964.0522381119 L 785.25582204158 964.0522381119 C 779.15582204158 964.0522381119 774.25582204158 959.1522381119 774.25582204158 953.0522381119 C 774.25582204158 946.9522381119 779.15582204158 942.0522381119 785.45582204158 942.0522381119 L 957.85582204158 938.8522381119 L 960.75582204158 930.2522381119 C 962.25582204158 925.8522381119 997.15582204158 822.6522381119 1005.25582204158 791.5522381119 C 1014.85582204158 754.5522381119 1022.35582204158 715.0522381119 1012.15582204158 678.3522381119 Z"/><path id="text" fill="#192559" transform="matrix(1.1441497986296354 0 0 1.1441497986296354 -7.688686646791149 416.6145875830325)" d="M 139.35771428571 178.99180342857 L 186.97371428571 178.99180342857 C 187.93371428571 178.99180342857 188.41371428571 179.53580342857 188.41371428571 180.62380342857 L 188.31771428571 189.26380342857 C 188.31771428571 190.60780342857 187.67771428571 191.27980342857 186.39771428571 191.27980342857 L 156.44571428571 191.27980342857 C 155.80571428571 191.27980342857 155.34171428571 191.40780342857 155.05371428571 191.66380342857 C 154.76571428571 191.91980342857 154.62171428571 192.30380342857 154.62171428571 192.81580342857 L 154.62171428571 207.69580342857 C 154.62171428571 208.71980342857 155.10171428571 209.23180342857 156.06171428571 209.23180342857 L 176.89371428571 209.23180342857 C 177.91771428571 209.23180342857 178.42971428571 209.74380342857 178.42971428571 210.76780342857 L 178.42971428571 219.88780342857 C 178.42971428571 220.78380342857 177.94971428571 221.23180342857 176.98971428571 221.23180342857 L 155.96571428571 221.23180342857 C 155.06971428571 221.23180342857 154.62171428571 221.64780342857 154.62171428571 222.47980342857 L 154.62171428571 248.01580342857 C 154.62171428571 248.84780342857 154.42971428571 249.42380342857 154.04571428571 249.74380342857 C 153.66171428571 250.06380342857 153.02171428571 250.22380342857 152.12571428571 250.22380342857 L 139.93371428571 250.22380342857 C 139.16571428571 250.22380342857 138.62171428571 250.06380342857 138.30171428571 249.74380342857 C 137.98171428571 249.42380342857 137.82171428571 248.91180342857 137.82171428571 248.20780342857 L 137.82171428571 180.81580342857 C 137.82171428571 179.59980342857 138.33371428571 178.99180342857 139.35771428571 178.99180342857 Z M 206.02971428571 246.81580342857 C 201.06971428571 243.90380342857 197.26171428571 239.72780342857 194.60571428571 234.28780342857 C 191.94971428571 228.84780342857 190.62171428571 222.38380342857 190.62171428571 214.89580342857 C 190.62171428571 207.34380342857 191.96571428571 200.79980342857 194.65371428571 195.26380342857 C 197.34171428571 189.72780342857 201.16571428571 185.47180342857 206.12571428571 182.49580342857 C 211.08571428571 179.51980342857 216.89371428571 178.03180342857 223.54971428571 178.03180342857 C 230.14171428571 178.03180342857 235.90171428571 179.51980342857 240.82971428571 182.49580342857 C 245.75771428571 185.47180342857 249.56571428571 189.72780342857 252.25371428571 195.26380342857 C 254.94171428571 200.79980342857 256.28571428571 207.31180342857 256.28571428571 214.79980342857 C 256.28571428571 222.22380342857 254.95771428571 228.67180342857 252.30171428571 234.14380342857 C 249.64571428571 239.61580342857 245.85371428571 243.82380342857 240.92571428571 246.76780342857 C 235.99771428571 249.71180342857 230.20571428571 251.18380342857 223.54971428571 251.18380342857 C 216.82971428571 251.18380342857 210.98971428571 249.72780342857 206.02971428571 246.81580342857 Z M 235.11771428571 233.61580342857 C 237.51771428571 229.77580342857 238.71771428571 223.56780342857 238.71771428571 214.99180342857 C 238.71771428571 206.22380342857 237.48571428571 199.82380342857 235.02171428571 195.79180342857 C 232.55771428571 191.75980342857 228.73371428571 189.74380342857 223.54971428571 189.74380342857 C 218.23771428571 189.74380342857 214.34971428571 191.75980342857 211.88571428571 195.79180342857 C 209.42171428571 199.82380342857 208.18971428571 206.22380342857 208.18971428571 214.99180342857 C 208.18971428571 223.56780342857 209.40571428571 229.77580342857 211.83771428571 233.61580342857 C 214.26971428571 237.45580342857 218.17371428571 239.37580342857 223.54971428571 239.37580342857 C 228.86171428571 239.37580342857 232.71771428571 237.45580342857 235.11771428571 233.61580342857 Z M 310.71771428571 180.81580342857 C 314.81371428571 182.67180342857 318.18971428571 185.19980342857 320.84571428571 188.39980342857 C 323.50171428571 191.59980342857 325.18171428571 195.18380342857 325.88571428571 199.15180342857 C 326.01371428571 199.59980342857 326.07771428571 200.11180342857 326.07771428571 200.68780342857 C 326.07771428571 201.07180342857 325.98171428571 201.32780342857 325.78971428571 201.45580342857 C 325.59771428571 201.58380342857 325.30971428571 201.67980342857 324.92571428571 201.74380342857 L 311.96571428571 202.60780342857 C 311.38971428571 202.60780342857 311.02171428571 202.51180342857 310.86171428571 202.31980342857 C 310.70171428571 202.12780342857 310.55771428571 201.74380342857 310.42971428571 201.16780342857 C 309.72571428571 197.64780342857 308.31771428571 194.86380342857 306.20571428571 192.81580342857 C 304.09371428571 190.76780342857 301.27771428571 189.74380342857 297.75771428571 189.74380342857 C 287.51771428571 189.74380342857 282.39771428571 197.93580342857 282.39771428571 214.31980342857 C 282.39771428571 222.83180342857 283.67771428571 229.03980342857 286.23771428571 232.94380342857 C 288.79771428571 236.84780342857 292.70171428571 238.79980342857 297.94971428571 238.79980342857 C 301.78971428571 238.79980342857 305.03771428571 237.83980342857 307.69371428571 235.91980342857 C 310.34971428571 233.99980342857 312.50971428571 230.86380342857 314.17371428571 226.51180342857 C 314.36571428571 226.06380342857 314.78171428571 225.83980342857 315.42171428571 225.83980342857 C 315.80571428571 225.83980342857 316.09371428571 225.87180342857 316.28571428571 225.93580342857 L 325.69371428571 227.95180342857 C 326.58971428571 228.27180342857 326.94171428571 229.07180342857 326.74971428571 230.35180342857 C 326.10971428571 233.10380342857 324.62171428571 236.07980342857 322.28571428571 239.27980342857 C 319.94971428571 242.47980342857 316.66971428571 245.26380342857 312.44571428571 247.63180342857 C 308.22171428571 249.99980342857 303.16571428571 251.18380342857 297.27771428571 251.18380342857 C 290.68571428571 251.18380342857 284.94171428571 249.63180342857 280.04571428571 246.52780342857 C 275.14971428571 243.42380342857 271.38971428571 239.07180342857 268.76571428571 233.47180342857 C 266.14171428571 227.87180342857 264.82971428571 221.39180342857 264.82971428571 214.03180342857 C 264.82971428571 206.73580342857 266.14171428571 200.36780342857 268.76571428571 194.92780342857 C 271.38971428571 189.48780342857 275.14971428571 185.31180342857 280.04571428571 182.39980342857 C 284.94171428571 179.48780342857 290.68571428571 178.03180342857 297.27771428571 178.03180342857 C 302.14171428571 178.03180342857 306.62171428571 178.95980342857 310.71771428571 180.81580342857 Z M 386.07771428571 244.79980342857 C 381.14971428571 249.05580342857 374.04571428571 251.18380342857 364.76571428571 251.18380342857 C 354.58971428571 251.18380342857 347.26171428571 248.78380342857 342.78171428571 243.98380342857 C 338.30171428571 239.18380342857 336.06171428571 231.88780342857 336.06171428571 222.09580342857 L 336.06171428571 180.91180342857 C 336.06171428571 180.33580342857 336.20571428571 179.87180342857 336.49371428571 179.51980342857 C 336.78171428571 179.16780342857 337.14971428571 178.99180342857 337.59771428571 178.99180342857 L 351.42171428571 178.99180342857 C 352.38171428571 178.99180342857 352.86171428571 179.56780342857 352.86171428571 180.71980342857 L 352.86171428571 224.20780342857 C 352.86171428571 229.39180342857 353.96571428571 233.18380342857 356.17371428571 235.58380342857 C 358.38171428571 237.98380342857 361.66171428571 239.18380342857 366.01371428571 239.18380342857 C 375.10171428571 239.18380342857 379.64571428571 234.09580342857 379.64571428571 223.91980342857 L 379.64571428571 180.81580342857 C 379.64571428571 179.59980342857 380.12571428571 178.99180342857 381.08571428571 178.99180342857 L 392.02971428571 178.99180342857 C 392.98971428571 178.99180342857 393.46971428571 179.56780342857 393.46971428571 180.71980342857 L 393.46971428571 223.82380342857 C 393.46971428571 233.55180342857 391.00571428571 240.54380342857 386.07771428571 244.79980342857 Z M 441.32571428571 191.42380342857 C 439.18171428571 190.36780342857 436.38171428571 189.83980342857 432.92571428571 189.83980342857 C 429.02171428571 189.83980342857 426.04571428571 190.54380342857 423.99771428571 191.95180342857 C 421.94971428571 193.35980342857 420.92571428571 195.21580342857 420.92571428571 197.51980342857 C 420.92571428571 200.84780342857 423.51771428571 203.27980342857 428.70171428571 204.81580342857 L 443.86971428571 209.13580342857 C 449.56571428571 210.73580342857 453.80571428571 213.26380342857 456.58971428571 216.71980342857 C 459.37371428571 220.17580342857 460.76571428571 224.33580342857 460.76571428571 229.19980342857 C 460.76571428571 233.67980342857 459.61371428571 237.56780342857 457.30971428571 240.86380342857 C 455.00571428571 244.15980342857 451.69371428571 246.70380342857 447.37371428571 248.49580342857 C 443.05371428571 250.28780342857 437.98171428571 251.18380342857 432.15771428571 251.18380342857 C 425.62971428571 251.18380342857 419.74171428571 250.07980342857 414.49371428571 247.87180342857 C 409.24571428571 245.66380342857 405.40571428571 242.63980342857 402.97371428571 238.79980342857 C 402.71771428571 238.35180342857 402.58971428571 237.93580342857 402.58971428571 237.55180342857 C 402.58971428571 237.03980342857 402.90971428571 236.49580342857 403.54971428571 235.91980342857 L 410.94171428571 230.83180342857 C 411.58171428571 230.44780342857 412.15771428571 230.25580342857 412.66971428571 230.25580342857 C 413.24571428571 230.25580342857 413.72571428571 230.51180342857 414.10971428571 231.02380342857 C 416.47771428571 234.09580342857 418.87771428571 236.27180342857 421.30971428571 237.55180342857 C 423.74171428571 238.83180342857 426.97371428571 239.47180342857 431.00571428571 239.47180342857 C 435.29371428571 239.47180342857 438.65371428571 238.79980342857 441.08571428571 237.45580342857 C 443.51771428571 236.11180342857 444.73371428571 234.09580342857 444.73371428571 231.40780342857 C 444.73371428571 229.67980342857 444.12571428571 228.20780342857 442.90971428571 226.99180342857 C 441.69371428571 225.77580342857 439.64571428571 224.71980342857 436.76571428571 223.82380342857 L 422.26971428571 219.69580342857 C 416.76571428571 218.15980342857 412.50971428571 215.58380342857 409.50171428571 211.96780342857 C 406.49371428571 208.35180342857 404.98971428571 204.23980342857 404.98971428571 199.63180342857 C 404.98971428571 195.53580342857 406.12571428571 191.85580342857 408.39771428571 188.59180342857 C 410.66971428571 185.32780342857 413.88571428571 182.75180342857 418.04571428571 180.86380342857 C 422.20571428571 178.97580342857 427.00571428571 178.03180342857 432.44571428571 178.03180342857 C 437.82171428571 178.03180342857 442.74971428571 178.94380342857 447.22971428571 180.76780342857 C 451.70971428571 182.59180342857 455.13371428571 185.03980342857 457.50171428571 188.11180342857 C 457.88571428571 188.62380342857 458.07771428571 189.07180342857 458.07771428571 189.45580342857 C 458.07771428571 189.83980342857 457.88571428571 190.19180342857 457.50171428571 190.51180342857 L 449.43771428571 196.46380342857 C 449.05371428571 196.71980342857 448.76571428571 196.84780342857 448.57371428571 196.84780342857 C 448.25371428571 196.84780342857 447.74171428571 196.49580342857 447.03771428571 195.79180342857 C 445.37371428571 193.93580342857 443.46971428571 192.47980342857 441.32571428571 191.42380342857 Z M 472.66971428571 178.99180342857 L 520.28571428571 178.99180342857 C 521.24571428571 178.99180342857 521.72571428571 179.53580342857 521.72571428571 180.62380342857 L 521.62971428571 189.26380342857 C 521.62971428571 190.60780342857 520.98971428571 191.27980342857 519.70971428571 191.27980342857 L 489.75771428571 191.27980342857 C 489.11771428571 191.27980342857 488.65371428571 191.40780342857 488.36571428571 191.66380342857 C 488.07771428571 191.91980342857 487.93371428571 192.30380342857 487.93371428571 192.81580342857 L 487.93371428571 207.69580342857 C 487.93371428571 208.71980342857 488.41371428571 209.23180342857 489.37371428571 209.23180342857 L 510.20571428571 209.23180342857 C 511.22971428571 209.23180342857 511.74171428571 209.74380342857 511.74171428571 210.76780342857 L 511.74171428571 219.88780342857 C 511.74171428571 220.78380342857 511.26171428571 221.23180342857 510.30171428571 221.23180342857 L 489.27771428571 221.23180342857 C 488.38171428571 221.23180342857 487.93371428571 221.64780342857 487.93371428571 222.47980342857 L 487.93371428571 248.01580342857 C 487.93371428571 248.84780342857 487.74171428571 249.42380342857 487.35771428571 249.74380342857 C 486.97371428571 250.06380342857 486.33371428571 250.22380342857 485.43771428571 250.22380342857 L 473.24571428571 250.22380342857 C 472.47771428571 250.22380342857 471.93371428571 250.06380342857 471.61371428571 249.74380342857 C 471.29371428571 249.42380342857 471.13371428571 248.91180342857 471.13371428571 248.20780342857 L 471.13371428571 180.81580342857 C 471.13371428571 179.59980342857 471.64571428571 178.99180342857 472.66971428571 178.99180342857 Z M 533.24571428571 178.99180342857 L 546.97371428571 178.99180342857 C 547.99771428571 178.99180342857 548.50971428571 179.56780342857 548.50971428571 180.71980342857 L 548.50971428571 236.68780342857 C 548.50971428571 237.13580342857 548.58971428571 237.45580342857 548.74971428571 237.64780342857 C 548.90971428571 237.83980342857 549.18171428571 237.93580342857 549.56571428571 237.93580342857 L 580.18971428571 237.93580342857 C 581.34171428571 237.93580342857 581.91771428571 238.41580342857 581.91771428571 239.37580342857 L 581.91771428571 248.49580342857 C 581.91771428571 249.00780342857 581.75771428571 249.42380342857 581.43771428571 249.74380342857 C 581.11771428571 250.06380342857 580.66971428571 250.22380342857 580.09371428571 250.22380342857 L 533.82171428571 250.22380342857 C 533.05371428571 250.22380342857 532.50971428571 250.06380342857 532.18971428571 249.74380342857 C 531.86971428571 249.42380342857 531.70971428571 248.91180342857 531.70971428571 248.20780342857 L 531.70971428571 180.81580342857 C 531.70971428571 179.59980342857 532.22171428571 178.99180342857 533.24571428571 178.99180342857 Z M 598.86171428571 246.81580342857 C 593.90171428571 243.90380342857 590.09371428571 239.72780342857 587.43771428571 234.28780342857 C 584.78171428571 228.84780342857 583.45371428571 222.38380342857 583.45371428571 214.89580342857 C 583.45371428571 207.34380342857 584.79771428571 200.79980342857 587.48571428571 195.26380342857 C 590.17371428571 189.72780342857 593.99771428571 185.47180342857 598.95771428571 182.49580342857 C 603.91771428571 179.51980342857 609.72571428571 178.03180342857 616.38171428571 178.03180342857 C 622.97371428571 178.03180342857 628.73371428571 179.51980342857 633.66171428571 182.49580342857 C 638.58971428571 185.47180342857 642.39771428571 189.72780342857 645.08571428571 195.26380342857 C 647.77371428571 200.79980342857 649.11771428571 207.31180342857 649.11771428571 214.79980342857 C 649.11771428571 222.22380342857 647.78971428571 228.67180342857 645.13371428571 234.14380342857 C 642.47771428571 239.61580342857 638.68571428571 243.82380342857 633.75771428571 246.76780342857 C 628.82971428571 249.71180342857 623.03771428571 251.18380342857 616.38171428571 251.18380342857 C 609.66171428571 251.18380342857 603.82171428571 249.72780342857 598.86171428571 246.81580342857 Z M 627.94971428571 233.61580342857 C 630.34971428571 229.77580342857 631.54971428571 223.56780342857 631.54971428571 214.99180342857 C 631.54971428571 206.22380342857 630.31771428571 199.82380342857 627.85371428571 195.79180342857 C 625.38971428571 191.75980342857 621.56571428571 189.74380342857 616.38171428571 189.74380342857 C 611.06971428571 189.74380342857 607.18171428571 191.75980342857 604.71771428571 195.79180342857 C 602.25371428571 199.82380342857 601.02171428571 206.22380342857 601.02171428571 214.99180342857 C 601.02171428571 223.56780342857 602.23771428571 229.77580342857 604.66971428571 233.61580342857 C 607.10171428571 237.45580342857 611.00571428571 239.37580342857 616.38171428571 239.37580342857 C 621.69371428571 239.37580342857 625.54971428571 237.45580342857 627.94971428571 233.61580342857 Z M 749.62971428571 181.00780342857 C 749.62971428571 181.45580342857 749.59771428571 181.77580342857 749.53371428571 181.96780342857 L 729.94971428571 248.20780342857 C 729.69371428571 248.91180342857 729.34171428571 249.42380342857 728.89371428571 249.74380342857 C 728.44571428571 250.06380342857 727.83771428571 250.22380342857 727.06971428571 250.22380342857 L 716.70171428571 250.22380342857 C 715.10171428571 250.22380342857 714.10971428571 249.55180342857 713.72571428571 248.20780342857 L 701.62971428571 206.25580342857 C 701.50171428571 205.61580342857 701.34171428571 205.29580342857 701.14971428571 205.29580342857 C 701.02171428571 205.29580342857 700.79771428571 205.67980342857 700.47771428571 206.44780342857 L 688.28571428571 248.20780342857 C 688.09371428571 248.91180342857 687.77371428571 249.42380342857 687.32571428571 249.74380342857 C 686.87771428571 250.06380342857 686.23771428571 250.22380342857 685.40571428571 250.22380342857 L 674.74971428571 250.22380342857 C 673.91771428571 250.22380342857 673.27771428571 250.06380342857 672.82971428571 249.74380342857 C 672.38171428571 249.42380342857 672.02971428571 248.91180342857 671.77371428571 248.20780342857 L 652.18971428571 181.96780342857 C 652.12571428571 181.77580342857 652.09371428571 181.45580342857 652.09371428571 181.00780342857 C 652.09371428571 179.66380342857 652.89371428571 178.99180342857 654.49371428571 178.99180342857 L 666.49371428571 178.99180342857 C 667.26171428571 178.99180342857 667.83771428571 179.11980342857 668.22171428571 179.37580342857 C 668.60571428571 179.63180342857 668.86171428571 180.04780342857 668.98971428571 180.62380342857 L 681.37371428571 224.30380342857 C 681.56571428571 225.07180342857 681.75771428571 225.45580342857 681.94971428571 225.45580342857 C 682.14171428571 225.45580342857 682.33371428571 225.16780342857 682.52571428571 224.59180342857 L 694.90971428571 180.62380342857 C 695.10171428571 179.53580342857 695.93371428571 178.99180342857 697.40571428571 178.99180342857 L 707.67771428571 178.99180342857 C 708.50971428571 178.99180342857 709.10171428571 179.11980342857 709.45371428571 179.37580342857 C 709.80571428571 179.63180342857 710.07771428571 180.04780342857 710.26971428571 180.62380342857 L 722.84571428571 224.97580342857 C 722.97371428571 225.42380342857 723.16571428571 225.66380342857 723.42171428571 225.69580342857 C 723.67771428571 225.72780342857 723.83771428571 225.51980342857 723.90171428571 225.07180342857 L 736.09371428571 180.62380342857 C 736.41371428571 179.53580342857 737.27771428571 178.99180342857 738.68571428571 178.99180342857 L 747.32571428571 178.99180342857 C 748.86171428571 178.99180342857 749.62971428571 179.66380342857 749.62971428571 181.00780342857 Z"/></svg>